<!-- GitHub mark that inherits text color via currentColor -->
<svg xmlns="http://www.w3.org/2000/svg" width="18" height="18" viewBox="0 0 16 16" fill="currentColor" aria-hidden="true">
    <path fill-rule="evenodd" d="M8 0C3.58 0 0 3.64 0 8.13c0 3.59 2.29 6.63 5.47 7.71.4.08.55-.18.55-.4 0-.2-.01-.86-.01-1.55-2 .37-2.53-.5-2.69-.96-.09-.24-.48-.96-.82-1.15-.28-.15-.68-.52-.01-.53.63-.01 1.08.58 1.23.82.72 1.22 1.87.88 2.33.67.07-.53.28-.88.51-1.09-1.78-.2-3.64-.91-3.64-4.03 0-.89.31-1.61.82-2.18-.08-.2-.36-1.02.08-2.12 0 0 .67-.22 2.2.83.64-.18 1.32-.27 2-.27s1.36.09 2 .27c1.53-1.05 2.2-.83 2.2-.83.44 1.1.16 1.92.08 2.12.51.57.82 1.29.82 2.18 0 3.13-1.87 3.83-3.65 4.03.29.25.54.73.54 1.48 0 1.07-.01 1.93-.01 2.19 0 .22.15.48.55.4C13.71 14.76 16 11.72 16 8.13 16 3.64 12.42 0 8 0z"/>
</svg>
