<svg xmlns="http://www.w3.org/2000/svg" width="18" height="18" viewBox="0 0 48 48">
    <path fill="#EA4335" d="M24 9.5c3.54 0 6.72 1.22 9.23 3.6l6.9-6.9C36.9 2.4 31.1 0 24 0 14.62 0 6.48 5.38 2.56 13.2l8.82 6.85C13.1 14.5 18.08 9.5 24 9.5z"/>
    <path fill="#4285F4" d="M46.5 24.5c0-1.64-.15-3.2-.45-4.7H24v9.1h12.7c-.55 2.97-2.18 5.48-4.68 7.18l7.15 5.55C43.8 37.5 46.5 31.6 46.5 24.5z"/>
    <path fill="#FBBC05" d="M11.38 28.05A14.51 14.51 0 0 1 10.5 24c0-1.4.24-2.75.68-4L2.56 13.2A23.98 23.98 0 0 0 0 24c0 3.9.94 7.58 2.56 10.8l8.82-6.75z"/>
    <path fill="#34A853" d="M24 48c6.48 0 11.93-2.13 15.9-5.87l-7.15-5.55c-2 1.35-4.6 2.17-7.75 2.17-5.92 0-10.9-4.02-12.72-9.45l-8.82 6.8C6.48 42.62 14.62 48 24 48z"/>
</svg>
